<?xml version="1.0" encoding="iso-8859-1"?>
<!-- Uploaded to: SVG Repo, www.svgrepo.com, Generator: SVG Repo Mixer Tools -->
<svg version="1.1" id="Layer_1" xmlns="http://www.w3.org/2000/svg" xmlns:xlink="http://www.w3.org/1999/xlink" 
	 viewBox="0 0 512.002 512.002" xml:space="preserve">
<g>
	<rect x="415.87" y="56.363" style="fill:#CFF09E;" width="80.826" height="71.88"/>
	<circle style="fill:#CFF09E;" cx="310.35" cy="299.717" r="117.61"/>
</g>
<g>
	<path style="fill:#507C5C;" d="M310.348,432.626c-73.286,0-132.91-59.624-132.91-132.91s59.624-132.91,132.91-132.91
		s132.91,59.624,132.91,132.91S383.634,432.626,310.348,432.626z M310.348,197.406c-56.415,0-102.311,45.897-102.311,102.311
		s45.897,102.311,102.311,102.311s102.311-45.897,102.311-102.311S366.762,197.406,310.348,197.406z"/>
	<path style="fill:#507C5C;" d="M310.348,371.272c-39.457,0-71.557-32.1-71.557-71.556c0-39.457,32.1-71.557,71.557-71.557
		c8.45,0,15.299,6.85,15.299,15.299c0,8.45-6.85,15.299-15.299,15.299c-22.584,0-40.958,18.373-40.958,40.958
		s18.373,40.957,40.958,40.957s40.957-18.373,40.957-40.957c0-8.45,6.85-15.299,15.299-15.299s15.299,6.85,15.299,15.299
		C381.904,339.173,349.804,371.272,310.348,371.272z"/>
	<path style="fill:#507C5C;" d="M496.701,41.064h-80.826c-8.45,0-15.299,6.85-15.299,15.299v14.707l-20.746-41.463
		c-2.592-5.182-7.888-8.453-13.682-8.453H145.853c-5.794,0-11.091,3.273-13.682,8.453l-41.697,83.336H15.299
		C6.85,112.944,0,119.793,0,128.243v73.468c0,8.45,6.85,15.299,15.299,15.299s15.299-6.85,15.299-15.299v-58.169h54.027v250.939
		c0,8.45,6.85,15.299,15.299,15.299s15.299-6.85,15.299-15.299V143.543h161.426c8.45,0,15.299-6.85,15.299-15.299
		c0-8.45-6.85-15.299-15.299-15.299H124.688l30.617-61.192h201.392l41.697,83.336c2.98,5.956,9.322,9.102,15.575,8.323
		c0.626,0.078,1.261,0.132,1.908,0.132h80.826c8.45,0,15.299-6.85,15.299-15.299v-71.88C512,47.913,505.15,41.064,496.701,41.064z
		 M481.401,112.944h-50.227V71.663h50.227V112.944z"/>
	<path style="fill:#507C5C;" d="M496.701,184.114c-8.45,0-15.299,6.85-15.299,15.299v260.833H30.599V276.673
		c0-8.45-6.85-15.299-15.299-15.299S0,268.223,0,276.673v198.875c0,8.45,6.85,15.299,15.299,15.299h481.401
		c8.45,0,15.299-6.85,15.299-15.299V199.413C512,190.963,505.15,184.114,496.701,184.114z"/>
</g>
</svg>